HIERARCHY
ROOT Hips
{
  OFFSET -102.467 93.6631 130.069
  CHANNELS 6 Xposition Yposition Zposition Zrotation Xrotation Yrotation
  JOINT LeftUpLeg
  {
    OFFSET 8.64259 1.95398 -2.38835
    CHANNELS 3 Zrotation Xrotation Yrotation
    JOINT LeftLeg
    {
      OFFSET 43.7702 0 0
      CHANNELS 3 Zrotation Xrotation Yrotation
      JOINT LeftFoot
      {
        OFFSET 40.6238 0 0
        CHANNELS 3 Zrotation Xrotation Yrotation
        JOINT LeftToeBase
        {
          OFFSET 12.7242 0 0
          CHANNELS 3 Zrotation Xrotation Yrotation
          End Site
          {
            OFFSET 0 0 0
          }
        }
      }
    }
  }
  JOINT RightUpLeg
  {
    OFFSET -8.2249 1.95398 -2.59336
    CHANNELS 3 Zrotation Xrotation Yrotation
    JOINT RightLeg
    {
      OFFSET 43.5653 0 0
      CHANNELS 3 Zrotation Xrotation Yrotation
      JOINT RightFoot
      {
        OFFSET 40.6238 0 0
        CHANNELS 3 Zrotation Xrotation Yrotation
        JOINT RightToeBase
        {
          OFFSET 12.7242 0 0
          CHANNELS 3 Zrotation Xrotation Yrotation
          End Site
          {
            OFFSET 0 0 0
          }
        }
      }
    }
  }
  JOINT Spine
  {
    OFFSET 0.165834 0.87714 6.61349
    CHANNELS 3 Zrotation Xrotation Yrotation
    JOINT Spine1
    {
      OFFSET 7.38963 1.71661e-005 0
      CHANNELS 3 Zrotation Xrotation Yrotation
      JOINT Spine2
      {
        OFFSET 11.9445 1.14441e-005 0
        CHANNELS 3 Zrotation Xrotation Yrotation
        JOINT Spine3
        {
          OFFSET 14.7254 4.19617e-005 0
          CHANNELS 3 Zrotation Xrotation Yrotation
          JOINT Spine4
          {
            OFFSET 10.9679 0 0
            CHANNELS 3 Zrotation Xrotation Yrotation
            JOINT RightShoulder
            {
              OFFSET 2.46616 -1.6653 3.69651
              CHANNELS 3 Zrotation Xrotation Yrotation
              JOINT RightArm
              {
                OFFSET 13.0012 0 0
                CHANNELS 3 Zrotation Xrotation Yrotation
                JOINT RightForeArm
                {
                  OFFSET 28.7848 1.52588e-005 0
                  CHANNELS 3 Zrotation Xrotation Yrotation
                  JOINT RightHand
                  {
                    OFFSET 26.5688 1.52588e-005 0
                    CHANNELS 3 Zrotation Xrotation Yrotation
                    End Site
                    {
                      OFFSET 0 0 0
                    }
                  }
                }
              }
            }
            JOINT LeftShoulder
            {
              OFFSET 2.38034 -1.29275 -3.7523
              CHANNELS 3 Zrotation Xrotation Yrotation
              JOINT LeftArm
              {
                OFFSET 16.3182 6.10351e-005 0
                CHANNELS 3 Zrotation Xrotation Yrotation
                JOINT LeftForeArm
                {
                  OFFSET 27.0901 0 0
                  CHANNELS 3 Zrotation Xrotation Yrotation
                  JOINT LeftHand
                  {
                    OFFSET 24.5451 1.52588e-005 0
                    CHANNELS 3 Zrotation Xrotation Yrotation
                    End Site
                    {
                      OFFSET 0 0 0
                    }
                  }
                }
              }
            }
            JOINT Neck
            {
              OFFSET 5.0226 -0.0266342 0
              CHANNELS 3 Zrotation Xrotation Yrotation
              JOINT Head
              {
                OFFSET 6.69363 2.86102e-005 0
                CHANNELS 3 Zrotation Xrotation Yrotation
                End Site
                {
                  OFFSET 0 0 0
                }
              }
            }
          }
        }
      }
    }
  }
}
MOTION
Frames:	12
Frame Time:	0.0416667
5.71934 51.5055 21.0639 3.34584 -39.6036 5.90554 -161.438 64.0093 87.8765 -113.781 1.76028 3.49837 71.2305 3.39237 -13.4627 68.5303 -9.94419 -11.2756 170.952 55.5839 67.5169 -100.171 -24.7706 -1.17501 88.9136 -1.32389 23.3437 59.7118 4.953 27.9345 1.31376 10.6917 -89.5712 5.47969 2.80337 0.777851 -6.18839 2.83488 0.653609 -28.7411 2.43995 1.5848 -8.7285 2.43995 1.5848 101.532 4.63419 -85.0589 -22.2335 18.7711 -47.8405 -3.89632 -18.4296 -13.2148 -19.0622 -1.25061 2.43345 -82.8372 -30.027 86.9858 -7.45082 1.81718 -93.8523 5.04966 35.0895 -15.1773 40.9615 6.25587 11.5171 16.4967 -5.40206 25.1486 4.60211 -14.6558 -29.5316 
4.28604 50.4131 30.3898 7.43232 -37.2487 9.58245 -172 56.5399 98.2169 -105.306 6.43251 2.7962 68.3194 1.44852 -13.5609 66.251 -9.72476 -12.1054 165.66 44.9978 73.5483 -90.3435 -22.5626 0.648463 89.7201 -2.66208 22.0736 54.4224 4.62682 27.3237 1.26218 10.5776 -89.5327 5.70693 2.7171 0.848229 -5.96137 2.75179 0.727741 -28.5122 2.33653 1.62594 -8.49952 2.33652 1.62592 101.115 4.54209 -86.9997 -23.6368 16.6979 -45.1357 -2.24183 -24.8894 -8.99015 -21.8603 -1.71397 4.00821 -87.8683 -41.6856 80.0459 0.910516 1.44298 -83.9829 6.29945 42.3103 -21.2732 40.6632 6.8083 12.9941 27.3275 -2.96605 30.6964 -5.02482 -14.3296 -35.1775 
2.27963 47.6542 39.4924 11.5275 -34.6581 12.0827 -177.725 49.1531 103.323 -96.5683 11.1007 2.60255 63.5665 -1.50142 -14.4842 64.9131 -10.7842 -15.4646 162.886 34.6934 76.2592 -80.0523 -20.0111 2.89408 88.0875 -1.8841 21.9012 59.0117 6.82866 32.0453 1.29061 10.4501 -89.3682 5.95994 2.84399 1.15864 -5.70822 2.89223 1.03225 -28.2583 2.36429 1.96008 -8.24563 2.36429 1.96007 101.14 2.31105 -86.9329 -27.4378 8.54569 -42.1356 1.78823 -24.2997 -8.23731 -31.5191 -3.40106 6.49004 -91.9885 -52.4053 76.0495 6.36776 2.79333 -75.7757 10.8774 48.6144 -29.0428 41.6378 7.36604 13.9633 33.1284 -3.92049 29.8249 -9.69087 -14.9918 -34.259 
-0.119023 43.4285 48.1781 15.0552 -30.2536 12.4042 -177.21 43.9028 104.601 -87.6686 16.1192 2.42234 60.2636 -2.82393 -13.0432 60.7198 -11.4637 -20.4633 161.871 26.1793 76.9457 -68.9075 -16.7419 5.35314 88.416 -0.265522 23.7929 44.839 8.68639 41.6668 0.797492 10 -88.8685 6.84923 2.07702 2.14329 -4.82168 2.16931 2.0498 -27.349 1.33709 2.66814 -7.33634 1.3371 2.66815 102.355 -5.47219 -80.276 -27.4557 3.48598 -42.3696 -1.13263 -15.47 -24.3259 -51.6563 -5.54333 6.50724 -92.7876 -59.2892 76.5173 11.3091 5.01897 -64.2367 19.8873 48.1419 -40.5531 43.8845 7.90379 14.193 31.8278 -6.30565 22.0321 -6.67303 -14.5433 -28.7381 
-2.02745 38.4442 55.3729 16.81 -26.5975 12.6901 -173.225 40.169 106.133 -80.7369 16.8687 1.79311 56.14 -4.89966 -13.5502 56.0375 -8.93975 -17.541 162.81 18.1065 78.34 -57.2874 -13.6403 6.88418 86.5594 2.19756 25.9303 36.359 9.80199 51.4038 0.200933 9.33701 -88.6146 8.18014 1.00948 2.67887 -3.4931 1.12637 2.63187 -26.0063 0.158069 2.85825 -5.99368 0.158066 2.85823 103.531 -10.4481 -78.0051 -26.5095 -3.35652 -42.7089 -6.80706 -9.68993 -43.3887 -57.7992 -5.47783 4.89343 -94.2471 -60.4731 74.8323 16.3108 7.43984 -48.8328 21.9526 43.285 -44.2876 34.9943 6.71888 15.5846 26.8708 -7.9156 12.4808 -1.15635 -12.7362 -21.3929 
-3.43278 33.6042 61.0698 17.5473 -23.4468 11.867 -168.267 37.1118 106.704 -74.8371 16.3135 0.611872 53.5467 -5.86226 -13.0929 53.7304 -8.1607 -17.2297 164.901 12.6022 79.5171 -48.621 -11.8184 6.73694 83.5317 4.29946 27.0612 17.6629 6.20603 60.6304 -0.00114805 8.66135 -88.2668 9.52632 0.778731 3.37894 -2.14868 0.926593 3.34145 -24.6485 -0.272123 3.45675 -4.63585 -0.272126 3.45673 104.127 -11.4155 -76.3526 -23.3024 -14.5237 -39.5782 -12.4208 -5.52438 -59.6689 -70.874 -5.66941 2.90703 -92.2585 -59.6479 77.3076 15.3272 10.2898 -38.5306 20.2381 42.0218 -43.7292 47.4721 7.76345 12.3579 27.8903 -9.13008 6.3144 -2.30482 -11.3994 -18.4761 
-4.15335 28.5651 65.8691 19.2572 -20.4338 11.4548 -166.133 33.8718 107.191 -69.0944 15.2581 -0.146065 51.2504 -7.11168 -14.8621 52.7289 -6.00371 -11.0069 166.404 7.76674 80.7682 -41.8784 -9.85918 6.37854 80.884 5.0317 26.4853 16.7896 5.65453 57.6209 -0.104813 8.04727 -88.1197 10.7547 0.658315 3.67598 -0.92119 0.819356 3.64351 -23.415 -0.476095 3.70397 -3.40232 -0.476102 3.70394 104.529 -12.0055 -75.2502 -17.3777 -25.6078 -32.8282 -20.5717 -0.747269 -73.5513 -71.6064 -6.942 4.60305 -89.5576 -58.5411 80.76 14.095 14.7802 -31.232 19.0124 41.0621 -42.9206 42.514 5.96978 10.2617 28.3644 -9.79864 5.99528 -3.80967 -11.6924 -17.7904 
-4.42782 23.2267 69.5885 19.6572 -17.913 10.27 -164.426 30.5143 107.331 -63.9161 14.4515 -0.801427 47.911 -8.62417 -16.3461 51.2349 -5.72613 -11.1876 167.924 4.3475 81.5841 -36.953 -9.40665 5.28664 76.4244 6.37412 25.9584 14.5469 5.04102 58.3154 -0.138829 7.52531 -88.01 11.7954 0.659081 3.89729 0.118911 0.829837 3.86457 -22.37 -0.541744 3.91529 -2.35736 -0.541747 3.91528 105.033 -13.7967 -74.1434 -7.72132 -32.1837 -21.3566 -31.7826 7.01207 -86.3352 -71.0427 -7.73044 5.821 -87.7009 -55.2723 82.8013 11.073 20.8429 -22.5086 19.746 39.5188 -45.1394 43.6975 6.17534 10.3016 32.6375 -10.7275 4.86163 -6.76405 -11.8121 -17.2044 
-4.08153 18.9373 71.8822 24.5221 -14.5255 9.59067 -165.71 28.7391 105.886 -59.4747 15.9194 -0.789877 45.5552 -9.56824 -16.7951 50.8362 -6.81795 -15.4608 166.767 1.93774 80.5325 -32.8728 -7.17346 6.46617 71.0642 8.97708 27.0239 14.5072 5.08082 59.8919 -0.776834 7.13743 -87.988 12.5923 -0.583941 4.08795 0.914969 -0.403605 4.10963 -21.5766 -1.78471 3.7244 -1.56399 -1.78472 3.72437 105.256 -12.9342 -73.3535 1.86735 -39.0023 -8.83123 -42.6337 16.535 -94.8631 -67.3916 -8.23313 7.33413 -87.0502 -54.1398 83.5563 7.78357 24.8192 -13.1198 20.0953 38.4594 -46.2583 44.3982 5.95771 9.55947 40.7774 -10.468 5.71984 -12.8973 -11.3193 -17.0566 
-4.11496 14.8833 73.6394 23.6096 -10.2985 7.83261 -163.666 29.2313 105.961 -56.1485 15.6403 -1.99946 43.2976 -10.7505 -18.9944 50.1932 -6.81533 -16.0788 166.628 2.7764 80.2061 -29.6797 -7.92318 6.60617 66.627 10.2483 27.0122 14.9399 5.30615 62.0748 -1.01215 6.72533 -88.0479 13.4259 -1.06369 4.04403 1.74897 -0.88482 4.08684 -20.7489 -2.22921 3.53847 -0.736272 -2.22921 3.53847 105.332 -12.0783 -72.9625 10.9223 -43.0685 3.48528 -52.6194 28.4718 -100.154 -62.1161 -9.24576 10.3229 -85.2922 -51.1997 85.7206 1.86302 27.098 -4.92714 27.9381 41.8727 -52.2048 39.8295 5.35996 9.66884 50.1357 -10.835 5.64695 -18.5159 -11.2918 -15.4823 
-4.50832 10.9518 75.0858 18.9117 -6.58112 6.82428 -158.325 29.3945 108.053 -52.9605 9.35203 -4.1396 41.5981 -11.4549 -23.3968 52.0853 -6.63146 -13.6448 168.586 3.64535 81.6074 -29.1986 -4.78071 5.05685 65.9694 11.0138 28.5338 28.0146 6.737 46.2092 -0.792734 6.17283 -88.3835 14.5284 -0.771752 3.36594 2.8532 -0.622959 3.3966 -19.6549 -1.74726 2.97898 0.357691 -1.74726 2.97898 105.262 -11.2318 -72.9943 19.6402 -45.5974 14.8782 -59.3783 39.4917 -102.634 -58.9091 -9.01194 10.9442 -83.7855 -50.6793 87.9118 -1.39879 31.3855 0.870727 23.2695 41.2756 -49.5277 42.9714 6.78211 11.9747 51.1453 -10.1232 5.17267 -18.7821 -10.6205 -13.2879 
-4.41018 9.91991 76.5152 15.6397 -6.14554 6.39952 -157.814 25.0836 109.075 -46.2267 8.14258 -4.37987 40.5108 -11.8359 -23.8046 53.2436 -6.35233 -11.718 167.294 3.72431 80.323 -29.9459 -1.37119 5.29586 67.9201 11.1679 30.8863 32.6088 5.52719 34.0599 -0.484609 6.38355 -88.9971 14.1091 -0.47022 2.06258 2.4366 -0.379001 2.08126 -20.0886 -1.06829 1.82604 -0.0759299 -1.06828 1.82604 106.178 -12.9408 -70.7447 15.3351 -39.7202 13.2786 -57.9581 45.5788 -109.893 -54.4223 -8.29205 11.0869 -85.275 -51.8443 85.8204 -5.06969 34.4251 5.29282 21.1159 40.624 -48.1054 50.4648 6.99432 9.85649 53.5021 -7.41234 7.84249 -18.3481 -9.96179 -13.0427 
